<svg width="480" height="480" xmlns="http://www.w3.org/2000/svg" xmlns:xlink="http://www.w3.org/1999/xlink" xml:space="preserve" overflow="hidden"><g><path d="M182.731 152.825C182.731 169.394 169.3 182.825 152.731 182.825 136.162 182.825 122.731 169.394 122.731 152.825 122.731 136.256 136.162 122.825 152.731 122.825 169.299 122.825 182.731 136.256 182.731 152.825Z" fill="#0E9DD4"/><path d="M415.697 195.525C413.305 183.293 403.486 173.604 391.22 171.389 386.85 170.6 382.633 170.797 378.703 171.73 378.698 171.731 378.694 171.729 378.692 171.725 371.55 155.949 355.67 144.974 337.226 144.974 332.272 144.974 327.505 145.769 323.041 147.232 323.037 147.233 323.033 147.232 323.03 147.229 311.44 131.987 292.844 122.362 272.04 123.163 239.932 124.399 214.035 150.872 213.461 182.998 213.302 191.883 215.045 200.342 218.307 207.999 218.309 208.003 218.312 208.005 218.316 208.005L415.535 208.005C415.54 208.005 415.544 208.002 415.545 207.997 416.411 204.072 416.547 199.872 415.697 195.525Z" fill="#E5E5E5"/><path d="M265.977 282.681C263.585 270.449 253.766 260.76 241.5 258.545 237.13 257.756 232.913 257.953 228.983 258.886 228.978 258.887 228.974 258.885 228.972 258.881 221.83 243.105 205.95 232.13 187.506 232.13 182.552 232.13 177.785 232.925 173.321 234.388 173.317 234.389 173.313 234.388 173.31 234.385 161.72 219.143 143.124 209.518 122.32 210.319 90.212 211.555 64.315 238.028 63.741 270.154 63.582 279.039 65.325 287.498 68.587 295.155 68.589 295.159 68.592 295.161 68.596 295.161L265.815 295.161C265.82 295.161 265.824 295.158 265.825 295.153 266.692 291.228 266.828 287.028 265.977 282.681Z" fill="#D1D1D1"/><path d="M209.841 222.325 208.427 220.911 218.366 210.971 219.78 212.385 209.841 222.325ZM121.623 310.543 120.209 309.129 102.565 326.773 103.979 328.187 121.623 310.543ZM156.91 275.255 155.496 273.841 137.852 291.485 139.266 292.899 156.91 275.255ZM192.197 239.968 190.783 238.554 173.139 256.198 174.553 257.612 192.197 239.968ZM86.336 345.83 84.922 344.416 74.982 354.356 76.396 355.77 86.336 345.83Z" fill="#E5E5E5"/><path d="M229.884 222.325 228.47 220.911 238.409 210.971 239.823 212.385 229.884 222.325ZM141.666 310.543 140.252 309.129 122.608 326.773 124.022 328.187 141.666 310.543ZM176.953 275.255 175.539 273.841 157.895 291.485 159.309 292.899 176.953 275.255ZM212.24 239.968 210.826 238.554 193.182 256.198 194.596 257.612 212.24 239.968ZM106.379 345.83 104.965 344.416 95.025 354.356 96.439 355.77 106.379 345.83Z" fill="#E5E5E5"/><path d="M248.357 222.325 246.943 220.911 256.883 210.971 258.297 212.385 248.357 222.325ZM160.14 310.543 158.726 309.129 141.082 326.773 142.496 328.187 160.14 310.543ZM195.427 275.255 194.013 273.841 176.369 291.485 177.783 292.899 195.427 275.255ZM230.714 239.968 229.3 238.554 211.656 256.198 213.07 257.612 230.714 239.968ZM124.852 345.83 123.438 344.416 113.498 354.356 114.912 355.77 124.852 345.83Z" fill="#E5E5E5"/><path d="M286.875 223.731 285.461 222.317 295.4 212.377 296.814 213.791 286.875 223.731ZM198.657 311.948 197.243 310.534 179.6 328.178 181.014 329.592 198.657 311.948ZM233.944 276.661 232.53 275.247 214.886 292.891 216.3 294.305 233.944 276.661ZM269.231 241.374 267.817 239.96 250.173 257.604 251.587 259.018 269.231 241.374ZM163.37 347.235 161.956 345.821 152.016 355.761 153.43 357.175 163.37 347.235Z" fill="#E5E5E5"/><path d="M325.392 223.731 323.978 222.317 333.917 212.377 335.331 213.791 325.392 223.731ZM237.174 311.949 235.76 310.535 218.116 328.179 219.53 329.593 237.174 311.949ZM272.461 276.661 271.047 275.247 253.403 292.891 254.817 294.305 272.461 276.661ZM307.748 241.374 306.334 239.96 288.69 257.604 290.104 259.018 307.748 241.374ZM201.887 347.235 200.473 345.821 190.534 355.761 191.948 357.175 201.887 347.235Z" fill="#E5E5E5"/><path d="M340.498 223.731 339.084 222.317 349.024 212.377 350.438 213.791 340.498 223.731ZM252.28 311.948 250.866 310.534 233.222 328.178 234.636 329.592 252.28 311.948ZM287.567 276.661 286.153 275.247 268.509 292.891 269.923 294.305 287.567 276.661ZM322.854 241.374 321.44 239.96 303.796 257.604 305.21 259.018 322.854 241.374ZM216.993 347.235 215.579 345.821 205.639 355.761 207.053 357.175 216.993 347.235Z" fill="#E5E5E5"/><path d="M363.909 223.731 362.495 222.317 372.435 212.377 373.849 213.791 363.909 223.731ZM275.691 311.949 274.277 310.535 256.633 328.179 258.047 329.593 275.691 311.949ZM310.978 276.661 309.564 275.247 291.92 292.891 293.334 294.305 310.978 276.661ZM346.266 241.374 344.852 239.96 327.208 257.604 328.622 259.018 346.266 241.374ZM240.404 347.235 238.99 345.821 229.05 355.761 230.464 357.175 240.404 347.235Z" fill="#E5E5E5"/><path d="M412.367 213.791 402.426 223.731 401.012 222.317 410.953 212.377 412.367 213.791ZM330.438 292.891 331.852 294.305 349.496 276.661 348.082 275.247 330.438 292.891ZM295.151 328.178 296.565 329.592 314.209 311.948 312.795 310.534 295.151 328.178ZM365.725 257.604 367.139 259.018 384.783 241.374 383.369 239.96 365.725 257.604ZM267.567 355.761 268.981 357.175 278.921 347.235 277.507 345.821 267.567 355.761Z" fill="#E5E5E5"/></g></svg>