<svg width="480" height="480" xmlns="http://www.w3.org/2000/svg" xmlns:xlink="http://www.w3.org/1999/xlink" xml:space="preserve" overflow="hidden"><g><path d="M388.289 316.709C388.289 325.458 395.382 332.551 404.131 332.551 412.88 332.551 419.973 325.458 419.973 316.709 419.973 307.96 404.131 285.025 404.131 285.025 404.131 285.025 388.289 307.96 388.289 316.709Z" fill="#E4E4E4"/><path d="M171.733 316.709C171.733 325.458 178.826 332.551 187.575 332.551 196.324 332.551 203.417 325.458 203.417 316.709 203.417 307.96 187.575 285.025 187.575 285.025 187.575 285.025 171.733 307.96 171.733 316.709Z" fill="#E4E4E4"/><path d="M280.011 316.709C280.011 325.458 287.104 332.551 295.853 332.551 304.602 332.551 311.695 325.458 311.695 316.709 311.695 307.96 295.853 285.025 295.853 285.025 295.853 285.025 280.011 307.96 280.011 316.709Z" fill="#E4E4E4"/><path d="M225.872 316.709C225.872 325.458 232.965 332.551 241.714 332.551 250.463 332.551 257.556 325.458 257.556 316.709 257.556 307.96 241.714 285.025 241.714 285.025 241.714 285.025 225.872 307.96 225.872 316.709Z" fill="#E4E4E4"/><path d="M92.259 391.38C92.259 400.129 99.352 407.222 108.101 407.222 116.85 407.222 123.943 400.129 123.943 391.38 123.943 382.631 108.101 359.696 108.101 359.696 108.101 359.696 92.259 382.631 92.259 391.38Z" fill="#E4E4E4"/><path d="M362.952 391.38C362.952 400.129 370.045 407.222 378.794 407.222 387.543 407.222 394.636 400.129 394.636 391.38 394.636 382.631 378.794 359.696 378.794 359.696 378.794 359.696 362.952 382.631 362.952 391.38Z" fill="#E4E4E4"/><path d="M200.536 391.38C200.536 400.129 207.629 407.222 216.378 407.222 225.127 407.222 232.22 400.129 232.22 391.38 232.22 382.631 216.378 359.696 216.378 359.696 216.378 359.696 200.536 382.631 200.536 391.38Z" fill="#E4E4E4"/><path d="M308.814 391.38C308.814 400.129 315.907 407.222 324.656 407.222 333.405 407.222 340.498 400.129 340.498 391.38 340.498 382.631 324.656 359.696 324.656 359.696 324.656 359.696 308.814 382.631 308.814 391.38Z" fill="#E4E4E4"/><path d="M419.972 257.578C419.972 227.095 395.26 202.383 364.777 202.383 360.37 202.383 356.089 202.915 351.981 203.89 351.976 203.891 351.972 203.889 351.97 203.885 339.046 175.332 310.306 155.467 276.926 155.467 267.959 155.467 259.33 156.906 251.25 159.556 251.246 159.557 251.242 159.556 251.239 159.553 231.161 133.146 199.464 116.054 163.765 115.912 103.026 115.671 53.089 165.262 52.928 226.001 52.887 241.453 56.023 256.167 61.717 269.531 61.719 269.535 61.722 269.537 61.726 269.537L418.65 269.537C418.655 269.537 418.659 269.534 418.66 269.529 419.51 265.679 419.972 261.683 419.972 257.578Z" fill="#0E9DD4"/></g></svg>